<svg xmlns="http://www.w3.org/2000/svg" xmlns:svgjs="http://svgjs.com/svgjs" xmlns:xlink="http://www.w3.org/1999/xlink" width="360" height="360"><svg xmlns="http://www.w3.org/2000/svg" width="360" height="360" viewBox="0 0 506.669 426.396"><g class="color000 svgShape" data-name="Layer 2"><g class="color000 svgShape" data-name="Layer 1"><path fill="#e0dadc" d="M245.578 16.313C298.81 30.69 321.066-.172 369.906 10.232c53.199 11.332 82.544 59.823 85.334 64.587 34.227 58.451 32.988 127.983-9.155 162.97-23.39 19.417-47.04 19.508-120.47 51.427-55.553 24.148-81.753 53.694-93.218 60.18-58.433 33.062-125.323 12.421-174.49-28.103-13.683-11.278-79.551-66.164-40.836-146.058 11.989-24.742 13.127-13.45 66.238-82.373 55.94-72.592 123.833-86.93 162.27-76.55Z" class="colordae0e0 svgShape"/><path fill="#ef9cb9" d="M393.22 121.451h86.4v58.08h-86.4z" class="color9ce9ef svgShape"/><path fill="#860283" d="M382.403 250.749H491.5v175.433H382.403zM388.214 116.286v65.664h96.413v-65.664Zm88.83 60.499h-81.247V121.45h81.246Z" class="color63daea svgShape"/><path fill="#860283" d="M429.572 181.95h14.76v88.34h-14.76z" class="color63daea svgShape"/><path fill="#aa81f7" d="M444.332 181.95h-14.76v3l14.76-3zM396.614 260.313h85.44v45.869h-85.44zM396.614 315.746h85.44v45.869h-85.44zM396.614 371.18h85.44v45.869h-85.44z" class="color26b5bf svgShape"/><circle cx="439.334" cy="283.248" r="5.619" fill="#bd1717" class="color139da0 svgShape"/><circle cx="439.334" cy="394.115" r="5.619" fill="#bd1717" class="color139da0 svgShape"/><circle cx="439.334" cy="338.681" r="5.619" fill="#bd1717" class="color139da0 svgShape"/><path fill="#aa81f7" d="m403.574 154.603 3.983-12.512.092-.288.1.287 5.645 16.037-.449.03 4.726-23.775.385-1.936.225 1.962 3.44 29.991-.764-.053 5.462-21.614.468-1.855.405 1.872 2.752 12.712-.935-.039c2.097-7.05 4.284-14.075 6.427-21.112l.572-1.877.317 1.934 4.486 27.372-.752-.015 3.847-18.23.225-1.067.41 1.01 4.57 11.292-.57.05 4.88-22.302.248-1.134.18 1.144 4.345 27.636-4.775-27.565.428.01-4.72 22.338-.2.951-.371-.901-4.632-11.268.634-.057-3.75 18.25-.41 2-.342-2.016-4.633-27.347.888.057c-2.124 7.043-4.206 14.099-6.377 21.128l-.55 1.784-.385-1.823-2.684-12.727.874.017-5.578 21.585-.533 2.063-.231-2.116-3.28-30.009.61.027-4.875 23.745-.174.85-.275-.82-5.395-16.123.192-.002ZM401.414 149.118l3.065-.095a.095.095 0 0 1 .006.19h-.006Z" class="color26b5bf svgShape"/><path fill="#aa81f7" d="m407.544 148.948 3.065-.075a.245.245 0 0 1 .012.49h-.012l-3.065-.076a.17.17 0 0 1 0-.34ZM413.674 148.825l3.065-.046a.338.338 0 0 1 .01.677h-.01l-3.065-.046a.293.293 0 0 1 0-.585ZM419.804 148.733l3.065-.04a.425.425 0 1 1 .01.85h-.01l-3.065-.041a.384.384 0 0 1 0-.769ZM425.934 148.678l3.065-.015a.455.455 0 0 1 .004.91H429l-3.065-.016a.44.44 0 0 1 0-.879ZM432.064 148.648l3.065-.015a.485.485 0 0 1 .005.97h-.005l-3.065-.015a.47.47 0 0 1 0-.94ZM438.194 148.618l3.065.015a.484.484 0 0 1 0 .97l-3.065.014a.5.5 0 1 1-.005-.999ZM444.324 148.648l3.065.016a.454.454 0 0 1 0 .908l-3.065.015a.47.47 0 1 1-.005-.939ZM450.454 148.679l3.065.015a.423.423 0 0 1 0 .847l-3.065.015a.439.439 0 1 1-.005-.877ZM456.584 148.737l3.065.046a.335.335 0 0 1 0 .67l-3.065.045a.38.38 0 0 1-.012-.76ZM462.714 148.83l3.065.05a.237.237 0 0 1 0 .475l-3.065.051a.288.288 0 1 1-.01-.577ZM468.844 148.956l3.065.075a.086.086 0 0 1 0 .173l-3.065.076a.162.162 0 1 1-.008-.324ZM451.814 168.283a9.669 9.669 0 0 1 3.24-.5 9.562 9.562 0 0 1 3.24.5 9.562 9.562 0 0 1-3.24.5 9.67 9.67 0 0 1-3.24-.5ZM460.454 168.283a9.67 9.67 0 0 1 3.24-.5 9.56 9.56 0 0 1 3.24.5 9.56 9.56 0 0 1-3.24.5 9.671 9.671 0 0 1-3.24-.5ZM469.064 168.283a9.669 9.669 0 0 1 3.24-.5 9.562 9.562 0 0 1 3.24.5 9.562 9.562 0 0 1-3.24.5 9.67 9.67 0 0 1-3.24-.5Z" class="color26b5bf svgShape"/><path fill="#ef9cb9" d="M60.857 425.396H17.064L5.328 348.359h67.265l-11.736 77.037z" class="color9ce9ef svgShape"/><rect width="77.921" height="7.968" y="340.681" fill="#bd1717" class="color139da0 svgShape" rx="3.984"/><path fill="#aa81f7" d="m16.154 356.941 1.201 7.463 1.136 7.472 2.173 14.958 2.03 14.979.964 7.496.898 7.505-1.201-7.462-1.137-7.472-2.172-14.959-2.029-14.978-.963-7.497-.9-7.505zM60.867 356.941l-.787 7.503-.851 7.495-1.803 14.978-1.947 14.959-1.025 7.473-1.089 7.465.786-7.503.851-7.495 1.804-14.977 1.948-14.959 1.024-7.474 1.089-7.465zM38.236 356.941l.152 7.44.088 7.44.073 14.881-.072 14.88-.088 7.44-.153 7.44-.152-7.44-.088-7.44-.072-14.88.073-14.881.088-7.44.151-7.44z" class="color26b5bf svgShape"/><path fill="#aa81f7" d="m13.753 366.244 6.302-.152 6.302-.088 12.603-.072 12.604.071 6.302.088 6.302.153-6.302.153-6.302.087-12.604.072-12.603-.073-6.302-.087-6.302-.152zM17.954 389.4c3.426-.13 6.852-.19 10.278-.24l10.278-.073 10.278.072c3.426.05 6.852.11 10.278.24-3.426.13-6.852.19-10.278.241l-10.278.072-10.278-.073c-3.426-.05-6.852-.11-10.278-.24ZM21.856 412.457c2.838-.129 5.676-.19 8.514-.24l8.516-.072 8.514.072c2.839.05 5.677.11 8.515.24-2.838.13-5.676.19-8.515.24l-8.514.072-8.516-.072c-2.838-.05-5.676-.11-8.514-.24Z" class="color26b5bf svgShape"/><path fill="#102454" d="m156.901 229.23-1.507 174.823s-8.666 7.913-21.665 0l-6.362-144.68-6.071-.378-7.039 145.058s-11.098 7.913-21.664 0L93.98 229.23Z" class="color104f54 svgShape"/><path fill="#0a1a3f" d="m143.313 260.646.04 1.5-.05.001.01-1.501zM143.433 265.133l.068 2.987-.226.002.008-2.988.15-.001zM143.568 271.107l.068 2.987-.376.004.007-2.988.301-.003zM143.703 277.081l.062 2.987-.515.005.003-2.988.45-.004zM143.818 283.055l.053 2.987-.606.006-.007-2.987.56-.006zM143.924 289.03l.053 2.987-.698.007-.007-2.988.652-.006zM144.029 295.004l.053 2.987-.788.008-.008-2.988.743-.007zM144.135 300.978l.041 2.987-.856.009-.019-2.987.834-.009zM144.213 306.953l.038 2.987-.886.009-.022-2.988.87-.008zM144.288 312.927l.038 2.988-.916.009-.023-2.988.901-.009zM144.363 318.902l.038 2.987-.946.01-.023-2.988.931-.009zM144.439 324.877l.037 2.987-.976.01-.023-2.988.962-.009zM143.522 330.863l.992-.01.031 2.987-.992.01zM144.567 336.826l.022 2.988-.963.009-.037-2.987.978-.01zM144.612 342.801l.022 2.987-.933.01-.037-2.987.948-.01zM144.657 348.776l.022 2.987-.902.009-.038-2.987.918-.009zM144.701 354.751l.023 2.987-.872.009-.038-2.987.887-.009zM144.746 360.726l.021 2.987-.838.009-.04-2.988.857-.008zM144.774 366.701l.007 2.988-.746.007-.053-2.987.792-.008zM144.788 372.676l.007 2.988-.654.006-.053-2.987.7-.007zM144.802 378.651l.007 2.988-.563.006-.053-2.988.609-.006zM144.816 384.627l-.002 2.987-.453.005-.062-2.987.517-.005zM144.807 390.602l-.008 2.988-.303.003-.067-2.987.378-.004zM144.792 396.578l-.009 2.987-.151.002-.068-2.987.228-.002zM144.763 402.553l-.01 1.5-.041-1.499.051-.001z" class="color0a3e3f svgShape"/><path fill="#1b1c1e" d="M157.4 241.004H94.422v-6.593H157.4z" class="color1b1e1e svgShape"/><path fill="#624fba" d="m146.163 132.834-4.568-2.268-25.72-.178-10.215 2.127v101.896h38.354l2.149-101.577z" class="color4fba75 svgShape"/><path fill="#f68aaf" d="m135.713 120.352.502 3.287-5.753 12.754h-3.389l-5.818-12.754.669-2.861 13.789-.426z" class="colorf6b98a svgShape"/><ellipse cx="128.455" cy="91.566" fill="#f68aaf" class="colorf6b98a svgShape" rx="19.781" ry="30.943"/><ellipse cx="149.236" cy="94.492" fill="#f68aaf" class="colorf6b98a svgShape" rx="5.121" ry="2.642" transform="rotate(-78.369 149.236 94.492)"/><path fill="#0f3ba2" d="M141.877 73.057s-18.093.262-18.085-5.651c0 0-13.705-2.516-12.01 26.505 0 0-9.184-3.616-7.77-18.028 0 0 4.662-22.606 32.779-16.248 0 0 17.765 4.926 11.426 30.65 0 0-5.15-11.422-6.34-17.228Z" class="color874106 svgShape"/><path fill="#020202" d="M143.86 89.447c-1.17-.17-2.255-.423-3.342-.515a5.001 5.001 0 0 0-3.158.515 2.509 2.509 0 0 1 1.413-1.116 4.305 4.305 0 0 1 1.818-.18 6.296 6.296 0 0 1 3.268 1.296ZM125.823 89.447a21.389 21.389 0 0 0-3.574-.663 7.862 7.862 0 0 0-1.737.088 7.574 7.574 0 0 0-1.718.575 3.535 3.535 0 0 1 1.55-1.164 4.932 4.932 0 0 1 1.955-.281 6.051 6.051 0 0 1 3.524 1.445Z" class="color020202 svgShape"/><ellipse cx="140.252" cy="95.417" fill="#020202" class="color020202 svgShape" rx="1.342" ry="2.437"/><ellipse cx="122.308" cy="95.417" fill="#020202" class="color020202 svgShape" rx="1.342" ry="2.437"/><path fill="#aa81f7" d="M109.639 101.135c23.995-5.479 37.631 0 37.63 0-2.574 12.41-10.023 21.374-18.814 21.374s-16.24-8.964-18.816-21.374Z" class="color26b5bf svgShape"/><path fill="#574b90" d="M115.09 100.04a51.85 51.85 0 0 1-4.514-5.052 51.224 51.224 0 0 1-3.899-5.541 51.26 51.26 0 0 1 4.514 5.053 51.855 51.855 0 0 1 3.899 5.54Z" class="color15989b svgShape"/><path fill="#4d3ca0" d="m142.482 130.988-7.343 12.165-6.455-7.064 2.456-3.548 10.455-2 .887.447z" class="color3ca05d svgShape"/><path fill="#4d3ca0" d="m114.757 130.621 1.933-.388 9.64 2.308 2.456 3.548-6.456 7.064-7.573-12.532z" class="color3ca05d svgShape"/><path fill="#e2c0cc" d="m126.106 141.583-4.81 63.91 5.595 5.558 6.548-5.369-1.236-64.827-6.097.728z" class="colorc0e2cc svgShape"/><path fill="#cca2b0" d="m132.217 141.627-3.431 3.143-2.735-2.452.055-.735 6.097-.728.014.772z" class="colora2ccae svgShape"/><path fill="#f4f4f4" d="M88.148 144.36a2.386 2.386 0 0 0-4.048 2.395c3.21 8.326 7.773 23.375 9.106 44.118a180.367 180.367 0 0 1-5.117 54.959l-12.587 50.747 42.215 2.26-3.015-105.967s-15.399-35.084-26.554-48.512ZM166.293 142.386s-8.562 17.749-9.187 51.42a204.705 204.705 0 0 0 6.14 53.05l12.332 49.723-42.214 2.26 3.014-105.967s20.233-52.11 29.915-50.486Z" class="colorf4f4f4 svgShape"/><path fill="#f4f4f4" d="M146.163 132.834s20.13 3.56 36.17 26.128l2.45-24.443H199.1v49.498s-6.39 21.853-38.047-22.324Z" class="colorf4f4f4 svgShape"/><path fill="#aa81f7" d="M191.48 130.515a6.586 6.586 0 0 0-4.154-5.274s6.216-1.978 6.687-4.522a1.698 1.698 0 0 0-.885-2.04 2.46 2.46 0 0 0-2.429.193l-7.33 4.767a17.723 17.723 0 0 0 2.516 9.101l1.064 1.779h9.137c6.405-7.206 2.072-16.06 2.072-16.06-1.225-2.544-3.297-1.602-3.297-1.602a2.49 2.49 0 0 0-3.297-.753c-.847-1.978-3.296-.66-3.296-.66.565-15.353-2.544-11.02-2.544-11.02l-1.13 13.187-1.225 6.028" class="color26b5bf svgShape"/><path fill="#574b90" d="M191.48 130.515a6.34 6.34 0 0 0-1.448-3.124 7.077 7.077 0 0 0-2.783-1.929.236.236 0 0 1 0-.443l.005-.002a22.689 22.689 0 0 0 3.768-1.733 10.352 10.352 0 0 0 1.657-1.169 2.748 2.748 0 0 0 .993-1.533 1.35 1.35 0 0 0-.55-1.477 1.964 1.964 0 0 0-1.696-.158 3.708 3.708 0 0 0-.833.46l-.886.568-1.773 1.135-3.544 2.27-.443.283-.222.142-.11.071-.056.036-.007.004c-.036.062.284-.522.15-.27v.048c-.005.344-.002.688.012 1.033a17.735 17.735 0 0 0 .208 2.059 18.478 18.478 0 0 0 1.129 3.993 38.837 38.837 0 0 0 1.898 3.74 30.446 30.446 0 0 1-2.194-3.609 16.742 16.742 0 0 1-1.353-4.029 18.336 18.336 0 0 1-.305-2.116c-.03-.355-.048-.712-.058-1.07v-.033l-.001-.017c-.134.246.182-.344.153-.285l.007-.004.054-.037.11-.072.22-.145.439-.29 3.512-2.32 1.756-1.16.878-.58a3.96 3.96 0 0 1 1.01-.538 2.723 2.723 0 0 1 2.35.266 1.915 1.915 0 0 1 .786 1 2.504 2.504 0 0 1 .066 1.215 3.412 3.412 0 0 1-1.243 1.932 9.886 9.886 0 0 1-1.797 1.22 23.22 23.22 0 0 1-3.942 1.617l.005-.445a6.792 6.792 0 0 1 2.844 2.2 5.823 5.823 0 0 1 .861 1.566 6.367 6.367 0 0 1 .373 1.73Z" class="color15989b svgShape"/><path fill="#0f3ba2" d="m155.394 404.053 8.868 4.64a9.87 9.87 0 0 0 6.523.958c4.554-.92 12.493-1.485 12.961 5.611H134.39s-1.884-9.513-.66-11.209Z" class="color874106 svgShape"/><path fill="#1b1c1e" d="M183.746 418.937h-49.357v-3.674h49.357z" class="color1b1e1e svgShape"/><path fill="#0f3ba2" d="m92.593 404.053-8.868 4.64a9.87 9.87 0 0 1-6.523.958c-4.554-.92-12.493-1.485-12.961 5.611h49.357s1.884-9.513.66-11.209Z" class="color874106 svgShape"/><path fill="#1b1c1e" d="M64.241 415.262h49.357v3.674H64.241z" class="color1b1e1e svgShape"/><path fill="#574b90" d="M120.071 198.335s3.957-1.13 11.68-7.065l4.75-1.848s-1.453 5.428-4.09 6.935l-2.638 1.507Z" class="color15989b svgShape"/><ellipse cx="106.439" cy="94.77" fill="#f68aaf" class="colorf6b98a svgShape" rx="2.821" ry="5.34" transform="rotate(-8.468 106.439 94.77)"/><path fill="#624fba" d="m115.875 130.388 5.38-6.749 7.531 10.88-6.456 7.064-6.455-11.195z" class="color4fba75 svgShape"/><path fill="#624fba" d="m141.595 130.541-5.38-6.902-7.531 10.88 6.455 7.064 6.456-11.042z" class="color4fba75 svgShape"/><path fill="#e2c0cc" d="m133.439 139.723-4.653 4.262-4.755-4.262 4.755-5.204 4.653 5.204z" class="colorc0e2cc svgShape"/><path fill="#cecece" d="m146.163 132.834 17.586 16.85-8.831-.645 4.52 10.53-23.06 33.303s-.348-14.448 9.785-60.038Z" class="colorcecece svgShape"/><path fill="#aa81f7" d="M136.178 123.365c8.368 1.9 14.294 6.161 17.646 12.692 7.057 13.737 1.02 34.114-1.915 42.27a57.975 57.975 0 0 1-1.068 2.802c-.18.47-.29.73-.306.753l1.437.628c.039-.078.125-.29.259-.612.25-.597.643-1.586 1.13-2.889 3.022-8.241 9.325-29.121 1.86-43.666-3.626-7.072-10.22-11.657-19.294-13.603Z" class="color26b5bf svgShape"/><circle cx="150.058" cy="184.179" r="6.132" fill="#ef9cb9" class="color9ce9ef svgShape"/><circle cx="150.058" cy="184.179" r="3.155" fill="#aa81f7" class="color26b5bf svgShape"/><path fill="#fc85ae" d="M122.991 226.593h37.113l16.578-63.298-37.678-2.692-16.013 65.99z" class="colorefaf84 svgShape"/><path fill="#aa81f7" d="m119.082 198.335 20.743-.945a3.767 3.767 0 0 1 3.87 4.672c-1.182 4.344-7.29 9.283-25.893 6.81Z" class="color26b5bf svgShape"/><path fill="#cecece" d="m93.111 189.55 21.614 4.12.374 13.133c-8.637-.364-15.72-.908-21.536-1.56a154.393 154.393 0 0 0-.452-15.694Z" class="colorcecece svgShape"/><path fill="#cecece" d="m93.315 192.77 21.545 5.646.373 13.103c-8.753-.367-15.873-2.09-21.74-2.751.223-6.08.11-10.634-.178-15.998Z" class="colorcecece svgShape"/><path fill="#f4f4f4" d="m105.66 132.515-7.72 1.46a31.09 31.09 0 0 0-21.918 15.863q-.683 1.308-1.246 2.688c-5.136 12.613-12.67 29.559-10.672 43.558a6.545 6.545 0 0 0 3.17 4.742c4.667 2.7 17.16 6.837 50.443 8.435l1.507-12.057-35.229-9.23 6.029-16.767 9.22-11.68Z" class="colorf4f4f4 svgShape"/><path fill="#cecece" d="M105.66 132.515 91.342 148.79h8.855l-5.275 10.173 19.78 33.91s2.638-14.767-9.042-60.357Z" class="colorcecece svgShape"/><path fill="#aa81f7" d="M121.265 123.6c-2.497.793-12.018 4.364-12.371 12.889l-1.562-.063c.431-10.644 13.155-14.207 14.325-14.514Z" class="color26b5bf svgShape"/><path fill="#1a3a82" d="M95.195 175.131a5.273 5.273 0 0 1-1.42-.196.785.785 0 0 1 .42-1.512c2.474.688 4.955-1.317 7.12-4.207a51.88 51.88 0 0 1-2.593-10.02c-.084-.715-1.853-16.54 4.004-21.651a6.92 6.92 0 0 1 6.575-1.305 2.508 2.508 0 0 1 1.782 1.06c2.075 2.708 1.328 9.635-2.22 20.59a53.603 53.603 0 0 1-5.759 11.525c1.05 2.367 2.035 3.355 2.706 3.764a1.363 1.363 0 0 0 1.04.265.802.802 0 0 1 .992.47.768.768 0 0 1-.41.988 2.677 2.677 0 0 1-2.264-.282 8.348 8.348 0 0 1-3.134-3.78c-1.994 2.465-4.32 4.29-6.839 4.291Zm11.861-37.617a4.832 4.832 0 0 0-3.297 1.213c-5.238 4.57-3.501 20.087-3.484 20.244a54.172 54.172 0 0 0 2.13 8.676 52.075 52.075 0 0 0 4.969-10.257c4.513-13.931 3.27-17.96 2.527-19.046-.352-.514-.698-.539-.713-.54a.614.614 0 0 1-.198-.024 7.772 7.772 0 0 0-1.934-.266Z" class="color197a7c svgShape"/><circle cx="108.409" cy="173.908" r="1.731" fill="#574b90" class="color15989b svgShape"/><circle cx="93.645" cy="173.71" r="1.731" fill="#574b90" class="color15989b svgShape"/><path fill="#574b90" d="M139.467 102.069a18.828 18.828 0 0 1-4.49 1.822 20.784 20.784 0 0 1-4.826.727 16.63 16.63 0 0 1-4.86-.546 14.312 14.312 0 0 1-4.419-2.003c.774.251 1.468.655 2.254.828l1.136.35 1.163.236a21.687 21.687 0 0 0 4.704.351 29.988 29.988 0 0 0 4.71-.528c.78-.149 1.558-.326 2.326-.543.779-.185 1.537-.438 2.302-.694ZM138.125 108.25a13.393 13.393 0 0 1-4.108 2.29 12.949 12.949 0 0 1-4.698.756 13.355 13.355 0 0 1-2.382-.291 11.58 11.58 0 0 1-2.252-.811 12.726 12.726 0 0 1-2.049-1.2 19.735 19.735 0 0 1-1.764-1.556 18.949 18.949 0 0 0 4.048 2.2 12.612 12.612 0 0 0 4.42.874 15.656 15.656 0 0 0 4.499-.546 17.54 17.54 0 0 0 2.178-.738 16.763 16.763 0 0 0 2.108-.978ZM136.9 114.314a14.836 14.836 0 0 1-8.145 2.8 10.572 10.572 0 0 1-4.323-.794 10.032 10.032 0 0 1-3.56-2.477 18.879 18.879 0 0 0 1.833 1.098l.94.473.993.34a12.507 12.507 0 0 0 4.102.575 18.648 18.648 0 0 0 4.143-.594 18.293 18.293 0 0 0 2.027-.627 20.276 20.276 0 0 0 1.99-.794ZM163.871 294.035l-1.171.138a.075.075 0 1 1-.018-.148h.01ZM160.368 294.415l-2.334.2a.265.265 0 0 1-.045-.529h.016l2.342-.053a.192.192 0 0 1 .021.382ZM155.7 294.808l-2.337.149a.357.357 0 0 1-.046-.712h.008l2.339-.102a.333.333 0 0 1 .036.665ZM151.026 295.106c-.779.054-1.558.098-2.338.126a.381.381 0 0 1-.041-.76 70.814 70.814 0 0 1 2.338-.125.38.38 0 0 1 .04.759ZM146.349 295.334l-2.34.102a.333.333 0 0 1-.035-.666l2.336-.15a.357.357 0 1 1 .046.714ZM141.668 295.494l-2.342.052a.193.193 0 0 1-.02-.384l2.333-.2a.266.266 0 1 1 .045.531ZM136.981 295.554l-1.18-.011 1.172-.138a.075.075 0 0 1 .018.149ZM115.17 295.76l-1.18-.008a.075.075 0 1 1 .002-.149H114ZM111.647 295.707l-2.34-.088a.265.265 0 1 1 .02-.53l.016.001 2.33.235a.192.192 0 0 1-.026.382ZM106.966 295.525l-2.338-.138a.357.357 0 1 1 .042-.712h.007l2.335.186a.333.333 0 0 1-.046.664ZM102.29 295.25a70.72 70.72 0 0 1-2.335-.162.381.381 0 0 1 .052-.76 70.8 70.8 0 0 1 2.336.162.38.38 0 0 1-.052.759ZM97.62 294.903l-2.334-.186a.333.333 0 0 1 .047-.665l2.337.138a.357.357 0 1 1-.042.713ZM92.955 294.489l-2.33-.235a.193.193 0 0 1 .026-.385l2.341.089a.266.266 0 1 1-.02.532ZM88.297 293.975l-1.17-.156 1.18.006a.075.075 0 0 1 0 .15ZM117.01 198.176a14.713 14.713 0 0 1 .083 1.59.264.264 0 1 1-.522-.06 14.772 14.772 0 0 1 .44-1.53ZM117.027 201.338a28.828 28.828 0 0 1-.173 1.56.38.38 0 0 1-.756-.086c.042-.522.112-1.04.183-1.559a.376.376 0 0 1 .746.085ZM116.584 204.448a15.279 15.279 0 0 1-.406 1.534.06.06 0 0 1-.116-.014 15.411 15.411 0 0 1-.05-1.585.289.289 0 1 1 .577.018.293.293 0 0 1-.005.047ZM196.274 137.68c-.523.105-1.047.187-1.57.242a.243.243 0 0 1-.05-.484.261.261 0 0 1 .05 0c.523.054 1.047.136 1.57.242ZM193.134 138.038c-.523.029-1.046.029-1.57.031a.39.39 0 1 1-.003-.78h.003c.524.003 1.047.003 1.57.032a.359.359 0 0 1 0 .717ZM189.994 138.02q-.785-.044-1.57-.14a.202.202 0 0 1 0-.401q.785-.095 1.57-.14a.341.341 0 1 1 .039.681.35.35 0 0 1-.039 0Z" class="color15989b svgShape"/><path fill="#e87ca1" d="M149.236 92.98a1.781 1.781 0 0 1 .656 1.411 2.11 2.11 0 0 1-.178.788 1.73 1.73 0 0 1-.478.626 5.413 5.413 0 0 0 .229-1.415 4.45 4.45 0 0 0-.23-1.41ZM106.439 92.344a8.478 8.478 0 0 0-.312 2.234 3.832 3.832 0 0 0 .14 1.085 5.593 5.593 0 0 0 .41 1.06 2.522 2.522 0 0 1-.72-.95 3.262 3.262 0 0 1-.257-1.189 3.676 3.676 0 0 1 .739-2.24Z" class="colore8a77c svgShape"/><path fill="#0a1a3f" d="M117.717 257.946a30.754 30.754 0 0 0 4.671-1.908 23.508 23.508 0 0 0 4.166-2.696 17.409 17.409 0 0 0 3.385-3.582 21.724 21.724 0 0 0 2.394-4.414 13.545 13.545 0 0 1-1.74 4.84l-.324.569-.391.522c-.269.343-.513.709-.804 1.033a17.476 17.476 0 0 1-1.89 1.807 17.734 17.734 0 0 1-4.474 2.628 16.461 16.461 0 0 1-4.993 1.201Z" class="color0a3e3f svgShape"/><path fill="#bc7dbb" d="M22.217 40.416h117.43v5.497H22.217z" class="color7dbcbc svgShape"/><path fill="#f2c0d1" d="M81.932 11.555h8.765a1 1 0 0 1 1 1v27.86H80.932v-27.86a1 1 0 0 1 1-1Z" class="colorc0f1f2 svgShape"/><path fill="#f2c0d1" d="M85.533 6.509h1.563a1 1 0 0 1 1 1v4.141h-3.563V7.51a1 1 0 0 1 1-1ZM45.428 45.913h3.054v10.791h-3.054zM118.421 45.913h3.054v10.791h-3.054zM40.472 21.633h16.783a1 1 0 0 1 1 1v17.783H39.472V22.633a1 1 0 0 1 1-1Z" class="colorc0f1f2 svgShape"/><path fill="#bc7dbb" d="M39.472 26.359h18.782v.424H39.472zM48.864 33.807a2.782 2.782 0 1 1 2.782-2.783 2.785 2.785 0 0 1-2.782 2.783Zm0-5.141a2.359 2.359 0 1 0 2.358 2.358 2.36 2.36 0 0 0-2.358-2.358ZM80.931 20.658h10.766v.424H80.931z" class="color7dbcbc svgShape"/><path fill="#f2c0d1" d="M109.08 11.555h8.765a1 1 0 0 1 1 1v27.86h-10.766v-27.86a1 1 0 0 1 1-1Z" class="colorc0f1f2 svgShape"/><path fill="#f2c0d1" d="M112.68 6.509h1.564a1 1 0 0 1 1 1v4.141h-3.564V7.51a1 1 0 0 1 1-1Z" class="colorc0f1f2 svgShape"/><path fill="#bc7dbb" d="M108.079 20.658h10.766v.424h-10.766z" class="color7dbcbc svgShape"/><path fill="#f2c0d1" d="M94.657 6.014h10.832a1 1 0 0 1 1 1v33.402H93.657V7.014a1 1 0 0 1 1-1Z" class="colorc0f1f2 svgShape"/><path fill="#f2c0d1" d="M98.95 0h2.247a1 1 0 0 1 1 1v5.128H97.95V1a1 1 0 0 1 1-1Z" class="colorc0f1f2 svgShape"/><path fill="#bc7dbb" d="M93.657 16.865h12.832v.506H93.657zM313.403 87.705h117.43v5.497h-117.43z" class="color7dbcbc svgShape"/><path fill="#f2c0d1" d="M373.118 58.844h8.766a1 1 0 0 1 1 1v27.861h-10.766V59.844a1 1 0 0 1 1-1Z" class="colorc0f1f2 svgShape"/><path fill="#f2c0d1" d="M376.72 53.798h1.563a1 1 0 0 1 1 1v4.141h-3.563V54.8a1 1 0 0 1 1-1ZM336.615 93.202h3.054v10.791h-3.054zM409.607 93.202h3.054v10.791h-3.054zM331.66 68.922h16.782a1 1 0 0 1 1 1v17.783h-18.783V69.922a1 1 0 0 1 1-1Z" class="colorc0f1f2 svgShape"/><path fill="#bc7dbb" d="M330.659 73.648h18.783v.424h-18.783zM340.05 81.096a2.782 2.782 0 1 1 2.783-2.782 2.785 2.785 0 0 1-2.782 2.782Zm0-5.141a2.359 2.359 0 1 0 2.359 2.359 2.361 2.361 0 0 0-2.358-2.36ZM372.118 67.947h10.766v.424h-10.766z" class="color7dbcbc svgShape"/><path fill="#f2c0d1" d="M400.266 58.844h8.766a1 1 0 0 1 1 1v27.861h-10.766V59.844a1 1 0 0 1 1-1Z" class="colorc0f1f2 svgShape"/><path fill="#f2c0d1" d="M403.867 53.798h1.563a1 1 0 0 1 1 1v4.141h-3.563V54.8a1 1 0 0 1 1-1Z" class="colorc0f1f2 svgShape"/><path fill="#bc7dbb" d="M399.265 67.947h10.766v.424h-10.766z" class="color7dbcbc svgShape"/><path fill="#f2c0d1" d="M385.844 53.303h10.832a1 1 0 0 1 1 1v33.402h-12.832V54.303a1 1 0 0 1 1-1Z" class="colorc0f1f2 svgShape"/><path fill="#f2c0d1" d="M390.136 47.29h2.247a1 1 0 0 1 1 1v5.127h-4.247V48.29a1 1 0 0 1 1-1Z" class="colorc0f1f2 svgShape"/><path fill="#bc7dbb" d="M384.844 64.154h12.833v.506h-12.833z" class="color7dbcbc svgShape"/><path fill="#860283" d="m238.743 253.993-12.126 150.84s8.061 10.084 23.988 2.615l17.99-144.541 5.604.56 7.374 143.14s11.895 6.443 22.316-.28l-1.114-151.917-63.976-.466a.054.054 0 0 0-.056.049Z" class="color63daea svgShape"/><path fill="#aa81f7" d="M302.775 256.744q-.138-1.168-.26-2.336l-63.497-.462q-.155 1.391-.327 2.783l21.41 4.09a80.641 80.641 0 0 0 18.914 1.358c22.698-1.07 23.76-5.433 23.76-5.433Z" class="color26b5bf svgShape"/><path fill="#860283" d="m304.581 144.98-18.125-5.792-13.883 9.883-16.416-9.883-18.478 5.768a17.024 17.024 0 0 0-6.767 4.02c-3.552 3.435-9.722 10.498-19.162 24.752l14.663 11.488 9.518-10.955s7.79 40.205 2.78 80.137l21.39 4.087a80.643 80.643 0 0 0 18.913 1.358c22.699-1.07 23.761-5.433 23.761-5.433-4.719-39.964 3.343-80.114 3.343-80.114l9.438 11.018 14.746-11.391c-9.334-14.313-15.452-21.417-18.98-24.876a17.021 17.021 0 0 0-6.741-4.067ZM295.5 89.794c0-13.769-11.356-24.153-25.364-24.153S244.77 76.025 244.77 89.794a25.368 25.368 0 0 0 50.73 0Z" class="color63daea svgShape"/><path fill="#0f3ba2" d="m292.55 91.194 2.87.585-.108 1.821a10.981 10.981 0 0 1-.859 3.653l-1.08 2.541s-.6.095-.851-2.325a47.068 47.068 0 0 1 .029-6.275ZM248.507 95.676c-2.515 4.9 2.824 12.315 5.309 11.952 2.315-.338 2.718-7.51 2.753-8.217.118-2.376.317-6.396-1.77-7.283-1.872-.796-5.061 1.152-6.292 3.548Z" class="color874106 svgShape"/><path fill="#f68aaf" d="M255.586 92.875s-3.972 7.396-5.899 8.03c0 0-7.472 7.283 2.95 8.59 0 0 .59 19.048 12.583 21.85v4.803a2 2 0 0 1-1.714 1.98l-7.35 1.06s16.143 23.156 30.3 0l-4.849-1.007a2 2 0 0 1-1.584-1.768l-.45-4.695s14.747-5.042 13.174-21.662c0 0 8.92-4.464.626-10.262 0 0-.696.53-.864-3.338-.054-1.244-.054-2.943.042-5.262 0 0-28.581-12.01-36.965 1.681ZM315.556 185.314l7.422 7.657-20.055 26.19s3.388 7.268 3.954 9.825a.593.593 0 0 0 .88.36c2.878-1.677 13.023-8.562 30.263-30.397 0 0 7.591-7.954-8.887-24.123ZM226.039 184.765l-7.423 7.656 20.147 26.31s-3.48 7.148-4.046 9.706a.593.593 0 0 1-.88.36c-2.878-1.677-13.022-8.562-30.262-30.397 0 0-7.591-7.954 8.886-24.123Z" class="colorf6b98a svgShape"/><path fill="#ef9cb9" d="M234.243 228.89c4.964 7.94 10.96-.429 10.96-.429l2.526.814a11.23 11.23 0 0 0 10.221-1.564q.287-.22.56-.462c3.342-2.958 1.607-5.46-.651-7.12a13.08 13.08 0 0 0-6.776-2.407c-11.491-.854-12.517 1.215-12.517 1.215a19.824 19.824 0 0 0-3.974 8.401ZM281.573 406.607v12.232h50.925a5.431 5.431 0 0 0-3.736-6.116l-9.425.861a10 10 0 0 1-6.212-1.48l-9.236-5.777ZM250.64 406.607v12.232h-50.926a5.431 5.431 0 0 1 3.736-6.116l8.522.778a10 10 0 0 0 7.482-2.421l7.163-6.247Z" class="color9ce9ef svgShape"/><path fill="#0f3ba2" d="M199.714 418.839h50.925v3.735h-50.925zM281.607 418.839h50.925v3.735h-50.925z" class="color874106 svgShape"/><path fill="#ef9cb9" d="M255.29 109.495v12.213s4.621 15.146 24.284 10.01c0 0 13.542-3.168 13.23-20.956 0 0-13.771-1.827-37.513-1.267Z" class="color9ce9ef svgShape"/><path fill="#860283" d="M255.29 109.495a42.458 42.458 0 0 0-1.32-2.199 21.742 21.742 0 0 0-1.475-2.025 13.744 13.744 0 0 0-1.754-1.75 12.298 12.298 0 0 0-2.14-1.35 6.012 6.012 0 0 1 2.496.84 8.543 8.543 0 0 1 2.01 1.748 10.083 10.083 0 0 1 2.184 4.736Z" class="color63daea svgShape"/><path fill="#020202" d="M262.812 99.794a6.34 6.34 0 0 1 3.39-1.093 5.942 5.942 0 0 1 1.809.219 4.04 4.04 0 0 1 1.584.874 13.189 13.189 0 0 0-3.365-.295c-1.116.036-2.225.183-3.418.295ZM283.015 99.794a7.21 7.21 0 0 1 3.795-.975 6.046 6.046 0 0 1 1.978.381 3.82 3.82 0 0 1 1.6 1.192 8.668 8.668 0 0 0-1.78-.595 11.657 11.657 0 0 0-1.816-.18c-1.23-.031-2.466.094-3.777.177Z" class="color020202 svgShape"/><ellipse cx="265.761" cy="105.924" fill="#020202" class="color020202 svgShape" rx="1.18" ry="2.311"/><ellipse cx="285.522" cy="105.924" fill="#020202" class="color020202 svgShape" rx="1.18" ry="2.311"/><path fill="#aa81f7" d="M265.224 135.129c-8.938 1.844-15.263 6.1-18.81 12.668-9.34 17.274 3.301 45.145 3.432 45.425l-1.499.623c-.54-1.167-13.084-28.821-3.392-46.757 3.802-7.041 10.733-11.593 20.269-13.515Z" class="color26b5bf svgShape"/><ellipse cx="250.347" cy="195.501" fill="#ef9cb9" class="color9ce9ef svgShape" rx="6.4" ry="6.078"/><ellipse cx="250.347" cy="195.501" fill="#aa81f7" class="color26b5bf svgShape" rx="3.293" ry="3.128"/><path fill="#aa81f7" d="M279.848 135.168c1.876.521 12.878 3.976 13.264 12.878l1.63-.063c-.459-10.792-14.345-14.24-15.017-14.402Z" class="color26b5bf svgShape"/><path fill="#aa81f7" d="M307.407 186.372c-2.63 0-5.06-1.825-7.144-4.284a8.614 8.614 0 0 1-3.186 3.73 2.911 2.911 0 0 1-2.416.33l.568-1.492a1.556 1.556 0 0 0 1.185-.3 8.138 8.138 0 0 0 2.75-3.665 52.174 52.174 0 0 1-5.986-11.396c-3.672-10.761-4.476-17.611-2.395-20.376a2.649 2.649 0 0 1 1.917-1.142 7.42 7.42 0 0 1 7.015 1.452c5.893 5.238 4.08 20.637 4 21.29a49.822 49.822 0 0 1-2.702 9.953c2.265 2.865 4.869 4.849 7.457 4.164l.408 1.544a5.747 5.747 0 0 1-1.471.192Zm-14.636-37.003a1.197 1.197 0 0 0-.768.588c-.75 1.096-1.989 5.12 2.68 18.806a50.24 50.24 0 0 0 5.21 10.184 51.359 51.359 0 0 0 2.244-8.67c.011-.104 1.787-15.172-3.484-19.855-1.458-1.296-3.308-1.647-5.654-1.075l-.112.028Z" class="color26b5bf svgShape"/><ellipse cx="293.227" cy="186.003" fill="#ef9cb9" class="color9ce9ef svgShape" rx="1.806" ry="1.716"/><ellipse cx="310.11" cy="184.942" fill="#ef9cb9" class="color9ce9ef svgShape" rx="1.806" ry="1.716"/><path fill="#ef9cb9" d="M307.255 229.396c-4.965 7.94-10.968-.71-10.968-.71l-2.527.813a11.23 11.23 0 0 1-10.221-1.564q-.287-.22-.56-.461c-3.342-2.958-1.607-5.46.651-7.12a13.08 13.08 0 0 1 6.776-2.407c11.491-.855 12.517 1.215 12.517 1.215l1.22 1.743a14.447 14.447 0 0 1 2.429 5.924Z" class="color9ce9ef svgShape"/><path fill="#aa81f7" d="M262.812 113.996q2.913.78 5.853 1.332a48.22 48.22 0 0 0 5.91.761 27.18 27.18 0 0 0 5.915-.173 15.718 15.718 0 0 0 5.592-1.92 12.746 12.746 0 0 1-5.482 2.524 21.721 21.721 0 0 1-6.076.366 32.601 32.601 0 0 1-5.99-.96 34.044 34.044 0 0 1-5.722-1.93ZM262.415 118.512q2.913.781 5.853 1.332a48.221 48.221 0 0 0 5.911.762 27.18 27.18 0 0 0 5.914-.174 15.718 15.718 0 0 0 5.593-1.92 12.746 12.746 0 0 1-5.483 2.524 21.723 21.723 0 0 1-6.076.366 32.601 32.601 0 0 1-5.989-.96 34.04 34.04 0 0 1-5.723-1.93ZM262.415 123.784q2.913.781 5.853 1.333a48.221 48.221 0 0 0 5.911.76 27.18 27.18 0 0 0 5.914-.172 15.718 15.718 0 0 0 5.593-1.92 12.746 12.746 0 0 1-5.483 2.524 21.721 21.721 0 0 1-6.076.365 32.601 32.601 0 0 1-5.989-.96 34.044 34.044 0 0 1-5.723-1.93Z" class="color26b5bf svgShape"/><path fill="#303a52" d="M229.106 260.492 79.16 248.984l-.763-9.69s121.958-23.867 151.836-17.738Z" class="color2c386c svgShape"/><path fill="#f68aaf" d="m79.54 248.453-11.125.876s-9.17-12.639-2.746-16.214l4.079 6.491a3.997 3.997 0 0 0 4.604 1.68l4.51-1.447Z" class="colorf6b98a svgShape"/><path fill="#303a52" d="M68.415 249.33s-5.54 5.31-10.323 1.896l-2.008-25.492a3.704 3.704 0 0 1 3.547-4.056c1.528-.007 3.25.952 4.6 4.328l1.438 7.109Z" class="color2c386c svgShape"/><path fill="#ed8cec" d="M25.254 279.853h365.04v24.391H25.254zM20.394 239.95a4.86 4.86 0 0 1 4.86 4.86v59.435h-9.72V244.81a4.86 4.86 0 0 1 4.86-4.86Z" class="color8cb8ed svgShape"/><path fill="#ed8cec" d="M394.417 239.95a4.86 4.86 0 0 1 4.86 4.86v59.435h-9.72V244.81a4.86 4.86 0 0 1 4.86-4.86Z" class="color8cb8ed svgShape"/><path fill="#ed8cec" d="M399.353 426.18H15.457V299.308h383.896ZM25.33 416.307h364.15V309.182H25.33Z" class="color8cb8ed svgShape"/><path fill="#9e579d" d="M282.753 265.916s-21.955.691-31.664-5.99S214.842 239 214.842 239l.012-19.754s11.55 5.005 42.537 3.025c0 0 13.101-11.137 21.936 6.636l22.228 20.58-5.456 13.465a55.315 55.315 0 0 1-13.346 2.965Z" class="colorc67773 svgShape"/><path fill="#f68aaf" d="M314.442 239.086s-16.084 6.849-21.703 2.047-13.412-12.227-13.412-12.227-.506 10.62 3.892 10.922 14.641 3.308 13.984 15.102-14.05 10.287-14.45 10.986c0 0 13.87-1.09 14.582-1.803 0 0 3.861-1.422 9.787-7.303 0 0 2.59-3.634 6-2.77l6.485-1.158-1.11-4.686Z" class="colorf6b98a svgShape"/><path fill="#e87ca1" d="m318.498 248.196-4.056-9.11s-3.96 1.41-4.885 1.76c.28.866 9.356 9.105 9.356 9.105Z" class="colore8a77c svgShape"/><path fill="#f68aaf" d="m178.993 233.706 42.517 24.55 62.974 3.556a8.637 8.637 0 0 0 9.36-8.393 8.637 8.637 0 0 0-8.606-8.851l-58.1-.196-44.964-19.65ZM350.02 228.35a20.397 20.397 0 0 0-12.967-1.357s-2.4 1.497-7.72-2.78c0 0-2.79-2.512-4.066 2.357a.96.96 0 0 1-.748.697 8.106 8.106 0 0 1-2.078.169 1.134 1.134 0 0 0-1.284 1.215c.009.066-.096.05-.315-.137-.951-.818-2.11.013-1.913 1.35a.176.176 0 0 0 .017.04s-3.985-1.051-5.135.647c0 0-1.077 1.18-.108 5.825a25.209 25.209 0 0 0 1.609 4.96c1.064 2.43 2.956 6.904 3.237 7.185l11.49 5.28 15.397-6.021 7.407-16.854Z" class="colorf6b98a svgShape"/><path fill="#e87ca1" d="M328.405 228.936a1.82 1.82 0 0 1-.827.463 1.721 1.721 0 0 1-1-.013 1.394 1.394 0 0 1-.795-.647 1.624 1.624 0 0 1-.226-.93 2.486 2.486 0 0 0 1.194 1.057 4.192 4.192 0 0 0 1.654.07Z" class="colore8a77c svgShape"/><path fill="#020202" d="M339.748 226.574a14.987 14.987 0 0 1 .599 1.946 7.64 7.64 0 0 1 .299 2.056 5.234 5.234 0 0 1-.492 2.06 11.431 11.431 0 0 1-1.107 1.73c.146-.664.378-1.33.574-1.934a7.516 7.516 0 0 0 .295-1.876 16.308 16.308 0 0 0-.13-1.946 15.026 15.026 0 0 1-.038-2.036ZM336.099 233.764a5.138 5.138 0 0 1-1.06-3.16 2.922 2.922 0 0 1 .52-1.695 2.157 2.157 0 0 1 1.493-.842 3.177 3.177 0 0 0-1.006 1.138 3.41 3.41 0 0 0-.277 1.416 20.06 20.06 0 0 0 .33 3.143Z" class="color020202 svgShape"/><path fill="#df32dd" d="M344.01 230.285a3.347 3.347 0 0 1 2.274 3.344c-.084 1.577-.545 3.441-2.116 4.313 0 0-4.95 3.82-6.678 8.992a26.53 26.53 0 0 0-6.898 1.42s-6.955-1.38-12.559.134a7.6 7.6 0 0 0-5.525 8.143c.532 5.04 3.415 12.736 15.22 17.06 18.587 6.808 26.99-5.281 26.99-5.281s9.903 12.85 18.716 2.39a17.972 17.972 0 0 0 3.956-9.273c.978-7.424 1.032-21.594-13.56-18.7a99.42 99.42 0 0 0-7.05-13.56 15.05 15.05 0 0 0-8.054-6.128c-3.82-1.158-9.242-1.165-15.652 3.445Z" class="colordf7332 svgShape"/><path fill="#c42cc2" d="M364.416 248.159a14.203 14.203 0 0 1 3.436.047 13.265 13.265 0 0 1 3.36.86 8.066 8.066 0 0 1 2.933 1.924 5.366 5.366 0 0 1 1.427 3.137 6.75 6.75 0 0 0-1.826-2.729 9.423 9.423 0 0 0-2.809-1.656 19.314 19.314 0 0 0-3.184-.976 42.517 42.517 0 0 0-3.337-.607ZM359.074 264.254a32.41 32.41 0 0 0 2.873 2.04 22.63 22.63 0 0 0 3.05 1.648 8.832 8.832 0 0 0 3.276.828 5.378 5.378 0 0 0 3.238-.94 4.629 4.629 0 0 1-3.23 1.51 7.802 7.802 0 0 1-3.573-.727 15.032 15.032 0 0 1-3.088-1.855 13.495 13.495 0 0 1-2.546-2.504ZM363.491 256.269a27.25 27.25 0 0 1 4.8 1.649 18.838 18.838 0 0 1 4.396 2.547l-2.364-.908a64.396 64.396 0 0 1-2.327-.971 36.587 36.587 0 0 1-4.505-2.317ZM363.83 242.827a32.325 32.325 0 0 1-.587 6.877 44.187 44.187 0 0 1-1.792 6.687 43.077 43.077 0 0 1-2.86 6.305c-.544 1.018-1.177 1.984-1.804 2.95-.64.958-1.366 1.858-2.068 2.764a68.458 68.458 0 0 0 3.375-5.976 50.545 50.545 0 0 0 2.669-6.288 52.146 52.146 0 0 0 1.932-6.555 51.238 51.238 0 0 0 1.136-6.764ZM347.5 229.58a13.906 13.906 0 0 1 4.26 1.84 15.016 15.016 0 0 1 3.534 3.072 13.995 13.995 0 0 1 2.419 4.011 15.647 15.647 0 0 1 .714 2.224 22.143 22.143 0 0 1 .344 2.295 24.102 24.102 0 0 0-1.572-4.29 17.254 17.254 0 0 0-2.462-3.767 18.947 18.947 0 0 0-3.292-3.083 19.244 19.244 0 0 0-1.904-1.248 17.699 17.699 0 0 0-2.04-1.054ZM317.418 258.242a70.32 70.32 0 0 0 7.36 4.834 47.617 47.617 0 0 0 7.936 3.704 26.734 26.734 0 0 0 8.51 1.725 17.093 17.093 0 0 0 8.447-1.894 15.797 15.797 0 0 1-4.029 1.844 17.595 17.595 0 0 1-4.42.613 20.09 20.09 0 0 1-4.448-.427 29.985 29.985 0 0 1-4.305-1.174 43.563 43.563 0 0 1-7.976-3.91 47.18 47.18 0 0 1-7.075-5.315ZM332.754 255.233c1.787.465 3.568.915 5.36 1.307 1.792.383 3.587.74 5.395.982a28.422 28.422 0 0 0 5.431.286 10.208 10.208 0 0 0 2.657-.464 5.57 5.57 0 0 0 2.334-1.348 5.258 5.258 0 0 1-2.209 1.684 10.477 10.477 0 0 1-2.728.687 21.97 21.97 0 0 1-5.583-.121 42.923 42.923 0 0 1-10.657-3.013ZM346.024 243.055a9.387 9.387 0 0 1 4.796.998 8.565 8.565 0 0 1 2.053 1.41 6.773 6.773 0 0 1 1.486 1.97 17.494 17.494 0 0 0-1.847-1.528 14.278 14.278 0 0 0-2.017-1.197 25.11 25.11 0 0 0-4.47-1.653Z" class="colorc45f2c svgShape"/><path fill="#f4c6d6" d="M278.354 269.07s23.3-11.76 50.358-2.057c17.528 6.286 30.903-.26 38.15-5.652a9.41 9.41 0 0 1 14.05 3.427 63.27 63.27 0 0 1 4.04 11.463c5.125 19.611-110.317 10.615-110.317 10.615s-6.514-3.686 3.72-17.796Z" class="colorf4f0c6 svgShape"/><path fill="#e8779e" d="M35.897 237.207c9.692-17.352 31.059-20.676 46.139-23.023 15.392-2.395 17.075.84 48.077.919 19.683.05 18.384-1.256 45.083-1.842 42.13-.925 40.073 2.442 53.294-.736 20.005-4.807 27.726-13.24 42.85-9.437 3.322.836 13.703 3.446 17.775 11.765 5.223 10.667-5.731 18.866-3.943 32.828 2.475 19.323 26.212 25.122 24.392 32.632-2.136 8.818-36.327 6.88-88.168 5.523-68.025-1.782-102.038-2.673-109.143-2.267-43.406 2.478-63.264 8.6-74.652-4.637-9.345-10.864-8.502-29.555-1.704-41.725Z" class="colore8e377 svgShape"/><path fill="#f4c6d6" d="m39.884 252.167-.995-.106c.056-.534.119-1.038.184-1.503l.99.14a45.83 45.83 0 0 0-.18 1.469ZM257.85 280.253q-.936 0-1.848-.011l.011-1q.907.01 1.837.01l1.177-.003.008 1Zm4.216-.057-.027-1q1.48-.04 3.01-.11l.047.998q-1.54.073-3.03.112Zm-9.095-.018q-1.55-.046-3.03-.12l.049-.999q1.47.07 3.01.119Zm15.154-.265-.067-.998q1.48-.1 3.004-.23l.086.996q-1.532.133-3.023.232Zm-21.211-.03q-1.559-.103-3.022-.226l.082-.996q1.456.12 3.006.225Zm27.253-.493-.106-.994q1.477-.158 2.993-.348l.125.992q-1.524.192-3.012.35Zm-33.291-.005q-1.573-.154-3.013-.311l.108-.994q1.432.155 3 .308Zm-6.02-.648-1.824-.208c-.379-.043-.77-.085-1.175-.127l.104-.994q.61.063 1.183.127l1.826.208Zm45.326-.107-.144-.99q.974-.143 1.963-.301l1.013-.165.165.986-1.021.167q-.996.158-1.976.303Zm-51.324-.502q-1.413-.119-3.006-.229l.07-.998q1.6.112 3.02.23Zm-6.015-.426q-1.439-.088-3.013-.174l.055-.998q1.577.086 3.018.174Zm63.323-.07-.184-.983q1.573-.294 2.957-.58l.201.978c-.925.191-1.92.388-2.974.585Zm-69.352-.262q-1.454-.073-3.015-.145l.045-.998q1.564.072 3.021.145Zm-6.031-.28-3.02-.126.041-1 3.02.127Zm-6.038-.248-3.019-.118.037-1 3.021.118Zm-6.037-.23-3.02-.111.035-1 3.022.11Zm-6.041-.219-3.02-.106.035-1 3.02.106Zm-6.04-.21-3.019-.105.035-1 3.02.104Zm-6.04-.207-3.018-.102.033-1 3.02.102Zm-6.04-.204-3.02-.101.033-1 3.02.101Zm-6.04-.203-2.994-.1-.01-.501.043-.5 2.994.101Zm-108.75-.177a63.27 63.27 0 0 1-3.044-.066l.047-.998c.92.043 1.9.064 2.998.064Zm102.709-.025-3.02-.1.032-1 3.02.1Zm-99.674-.014-.024-1q1.46-.035 3.015-.091l.035 1q-1.561.054-3.026.091Zm93.63-.187-3.019-.1.033-1 3.02.1Zm-87.583-.01-.033-1q1.513-.052 3.028-.083l.02 1q-1.508.03-3.015.082Zm24.162-.08v-1q1.51 0 3.02-.012l.007 1q-1.513.012-3.027.012Zm-39.337-.003a24.592 24.592 0 0 1-3.031-.563l.248-.97a23.732 23.732 0 0 0 2.908.54Zm36.312-.004-3.023-.017.006-1 3.021.017Zm-6.045-.039-3.022-.017.004-1 3.023.017Zm-9.061-.003-.01-1q1.513-.015 3.027-.016l.002 1q-1.51.002-3.02.016Zm24.185-.003-.018-1q1.507-.028 3.015-.074l.03 1q-1.512.047-3.028.074Zm51.33-.055-3.02-.096.03-1 3.022.096Zm15.118-.001.016-.5Zm-60.392-.135-.047-.998q1.506-.07 3.01-.168l.065.998q-1.514.098-3.028.168Zm39.234-.054-3.022-.09.03-1 3.02.09Zm-6.041-.178-3.02-.082.025-1 3.022.082Zm-27.156-.133-.052-.998c.946-.051 1.954-.091 3.033-.122l.027 1c-1.07.03-2.07.07-3.008.12Zm21.113-.022q-1.557-.037-3.019-.065l.02-1q1.463.029 3.022.065Zm-6.036-.118q-1.57-.022-3.021-.036l.01-1q1.451.013 3.024.036Zm-9.056-.037-.01-1q1.368-.015 2.873-.015h.154v1h-.154q-1.5 0-2.863.015Zm-69.47-.81a13.985 13.985 0 0 1-2.675-1.618l.612-.79a12.764 12.764 0 0 0 2.483 1.5Zm-4.92-3.792a15.453 15.453 0 0 1-1.733-2.592l.882-.47a14.343 14.343 0 0 0 1.62 2.424Zm-2.943-5.45a22.288 22.288 0 0 1-.744-3l.984-.176a21.208 21.208 0 0 0 .71 2.865Zm-1.104-6.056a31.933 31.933 0 0 1-.063-2.052q0-.516.014-1.017l1 .03q-.014.486-.014.987c0 .647.018 1.312.061 1.988ZM292.172 276.39l-.221-.975q.78-.177 1.45-.338l.233.973q-.674.16-1.462.34Z" class="colorf4f0c6 svgShape"/><path fill="#ce5f85" d="m202.512 258.225-.998-.052c1.45-27.097 25.584-37.205 25.827-37.304l.377.926c-.239.096-23.79 9.981-25.206 36.43ZM59.204 245.369l-.64-.217c5.407-15.905 24.334-17.53 24.525-17.545l.05.674c-.185.015-18.673 1.61-23.935 17.088ZM118.842 255.002l-.955-.219c5.397-23.507 32.752-28.598 33.029-28.645l.17.964c-.269.048-26.993 5.034-32.244 27.9Z" class="colorcec65f svgShape"/><path fill="#bd1717" d="M505.669 426.396H3.629a1 1 0 0 1 0-2h502.04a1 1 0 0 1 0 2Z" class="color139da0 svgShape"/></g></g></svg></svg>