<svg xmlns="http://www.w3.org/2000/svg" data-name="Layer 1" viewBox="0 0 512 512"><defs><clipPath id="a"><rect width="429.12" height="285.18" x="41.44" y="153.934" fill="none"/></clipPath></defs><rect width="429.12" height="285.18" x="41.44" y="153.934" fill="#ff7e84"/><g clip-path="url(#a)"><circle cx="85.11" cy="216.024" r="18.873" fill="none" stroke="#fff" stroke-miterlimit="10" stroke-width="3"/><circle cx="103.983" cy="236.022" r="18.873" fill="none" stroke="#fff" stroke-miterlimit="10" stroke-width="3"/><circle cx="348.716" cy="240.362" r="33.991" fill="none" stroke="#fff" stroke-miterlimit="10" stroke-width="3"/><circle cx="389.647" cy="261.302" r="33.991" fill="none" stroke="#fff" stroke-miterlimit="10" stroke-width="3"/><circle cx="332.391" cy="177.032" r="48.272" fill="none" stroke="#fff" stroke-miterlimit="10" stroke-width="3"/><circle cx="103.983" cy="416.015" r="48.272" fill="none" stroke="#fff" stroke-miterlimit="10" stroke-width="3"/><circle cx="408.017" cy="405.505" r="48.272" fill="none" stroke="#fff" stroke-miterlimit="10" stroke-width="3"/></g><circle cx="211.66" cy="227.472" r="35.118" fill="#350313"/><path fill="#e8a670" d="M438.28,439.11349H76.37964c13.08008-54.06,23.36035-83.76,23.36035-83.76,4.88965-29.35,27.52-38.84,27.52-38.84l25.71973-9.56,14.34033-4.46,32.52-10.12a27.589,27.589,0,0,0,8.48-4.35,27.90881,27.90881,0,0,0,10.44971-15.94H218.78c.12012-.53.23-1.07.31982-1.61.06006-.38.12012-.76.16993-1.14.06-.42.10986-.83.1499-1.26v-.05c.04-.47.07031-.96.09033-1.44.00977-.32.02-.63.02-.95v-37.51h70.09961v37.5a27.93877,27.93877,0,0,0,7.88037,19.45,25.29834,25.29834,0,0,0,2.64014,2.42,5.94053,5.94053,0,0,0,.48974.39,27.97231,27.97231,0,0,0,8.68018,4.49l36.96,11.5,14.31982,4.46,8.93018,2.78,17.35986,5.4c8,3.7,14.10987,9.92005,18.62989,16.3a79.58092,79.58092,0,0,1,10.95019,22.54h.10986S425.76978,385.05349,438.28,439.11349Z"/><path fill="#c68d61" d="M246.12209 268.00288c25.00088-4.35788 43.50554-33.3231 43.50554-33.3231s-24.79416-2.04144-40.30059-6.55922H219.52846v37.49432a27.99386 27.99386 0 01-.75519 6.42607l-.0007.03919S221.1209 272.36076 246.12209 268.00288zM256.909 363.76428c.28125 3.59137.45069 7.166.59278 10.73785l.41064 10.69965c.12354 3.56231.26758 7.12274.46387 10.67828.209 3.55707.43652 7.1059.8164 10.68854a54.98464 54.98464 0 01-2.36962-10.53851c-.51758-3.5694-.74854-7.16291-.90821-10.75367-.12109-3.59295-.127-7.18634.03223-10.775A98.23679 98.23679 0 01256.909 363.76428z"/><path fill="none" stroke="#db3a3a" stroke-dasharray=".661 5.295" stroke-linecap="round" stroke-miterlimit="10" stroke-width="3.253" d="M214.51153,283.36282s36.73246,52.15044,84.6,0"/><path fill="#577fff" d="M375.76978,439.11349H137.03l7.00976-52.64,8.93995-79.52,14.34033-4.47v.01a74.82017,74.82017,0,0,0,74.25976,83.98H273.24a73.54094,73.54094,0,0,0,73.04-82.6l14.31982,4.46,8.79,78.14h.01026Z"/><path fill="#e8a670" d="M311.04762,159.44023a10.43114,10.43114,0,0,0-4.46533.10345c-5.21035-35.97248-26.82955-62.94931-52.71971-62.94931-25.9623,0-47.63338,27.125-52.76666,63.24773a10.62469,10.62469,0,0,0-5.44438-.40187c-8.0169,1.59378-12.59686,12.538-10.22974,24.44424,2.28424,11.48978,10.20276,19.64859,17.95851,18.77509,7.61295,28.197,26.75651,48.07609,46.08193,53.10339a17.51718,17.51718,0,0,0,4.40034.26146,13.58646,13.58646,0,0,0,3.5012-.16546c21.6186-5.78484,40.04339-25.039,47.21481-53.1344,7.33658-.08616,14.53841-7.97279,16.69893-18.84008C323.64464,171.97822,319.06453,161.034,311.04762,159.44023Z"/><ellipse cx="312.168" cy="180.413" fill="#c68d61" rx="12.791" ry="5.134" transform="rotate(-82.718 312.168 180.413)"/><ellipse cx="195.453" cy="180.413" fill="#c68d61" rx="5.134" ry="12.791" transform="rotate(-7.282 195.453 180.413)"/><path fill="#c68d61" d="M201.096 159.8421c.28125 3.59247.45019 7.16815.59277 10.74115l.41015 10.70294c.124 3.56341.26758 7.12494.46436 10.68158.209 3.55817.43652 7.10809.81689 10.69177a55.01977 55.01977 0 01-2.3706-10.54175c-.51709-3.57049-.74805-7.1651-.9082-10.757-.1211-3.59405-.127-7.18847.03271-10.77819A98.0569 98.0569 0 01201.096 159.8421zM306.88559 159.8421a98.18122 98.18122 0 01.9624 10.74048c.15918 3.58972.15332 7.18414.03222 10.77819-.15966 3.59192-.39111 7.18653-.9082 10.757a55.01977 55.01977 0 01-2.3706 10.54175c.38037-3.58368.60791-7.1336.81689-10.69177.19678-3.55664.34082-7.11817.46436-10.68158l.41064-10.70294C306.43539 167.01025 306.60482 163.43457 306.88559 159.8421z"/><path fill="#350313" d="M202.616,186.49066s7.44048-92.96325,73.67425-74.20679c0,0,31.59877,26.14335,29.54728,80.36126,0,0,1.819-19.19481,4.20039-33.35153,0,0,6.39906-34.34759-5.906-53.45726-9.43489-14.65229-25.49707-17.58419-26.96242-17.58419,0,0-23.71618-17.88763-51.00927.76311a57.76436,57.76436,0,0,0-23.27084,34.37625,153.94523,153.94523,0,0,0-3.95542,35.95169Z"/><path fill="#502e2c" d="M277.16928,88.25213a27.679,27.679,0,0,1,1.21484,6.06043,45.5039,45.5039,0,0,1,.17578,6.0224,44.7604,44.7604,0,0,1-.61035,5.99365,27.384,27.384,0,0,1-1.65918,5.95526,27.38559,27.38559,0,0,1-1.21973-6.06061,44.75969,44.75969,0,0,1-.17089-6.02222,45.58727,45.58727,0,0,1,.61572-5.99346A27.705,27.705,0,0,1,277.16928,88.25213Z"/><path fill="none" stroke="#350313" stroke-miterlimit="10" stroke-width="1.221" d="M280.01946,112.28387S292.76,138.941,296.08364,153.14561s8.60878,36.245,1.46784,65.9731,8.25,33.99356,8.25,33.99356"/><path fill="#38101b" d="M229.10015 172.70421c4.799 0 4.807-7.45822 0-7.45822-4.799 0-4.807 7.45822 0 7.45822zM279.81606 172.70421c4.799 0 4.807-7.45822 0-7.45822-4.799 0-4.807 7.45822 0 7.45822zM213.34066 158.40429a37.25516 37.25516 0 017.64063-3.40039c1.29883-.43219 2.6084-.80438 3.9248-1.14007l1.93164-.46711q.88257-.20314 1.74512-.47595a34.12575 34.12575 0 006.71582-2.87469c.54932-.30109 1.08789-.62873 1.63526-.96241.56787-.36279 1.165-.73266 1.76123-1.08233a28.8902 28.8902 0 013.80371-1.88776 28.90011 28.90011 0 01-2.1333 3.67145c-.394.57562-.78272 1.13623-1.209 1.69452a16.6054 16.6054 0 01-1.46972 1.66192 18.50921 18.50921 0 01-7.6626 4.53638c-.72559.20184-1.45459.392-2.1958.52069-.76514.12433-1.36719.20954-2.06348.291-1.34912.15936-2.70508.28216-4.07227.345A37.251 37.251 0 01213.34066 158.40429zM296.76889 158.20629a37.25159 37.25159 0 01-8.34571.5423c-1.36767-.04449-2.72509-.14911-4.07617-.29034-.69726-.07209-1.30078-.14917-2.06738-.26325-.74268-.11877-1.47461-.29907-2.20215-.49115a18.50787 18.50787 0 01-7.72314-4.43316 16.6199 16.6199 0 01-1.4917-1.642c-.43409-.55249-.83008-1.10785-1.23194-1.67816a28.82024 28.82024 0 01-2.18213-3.64246 28.85953 28.85953 0 013.82813 1.83655c.60107.34161 1.20361.70343 1.77637 1.05859.55175.3263 1.09423.64667 1.64746.94037a34.14912 34.14912 0 006.7539 2.7843q.86572.25974 1.75147.45246l1.938.44116c1.3208.318 2.63525.6726 3.93945 1.08728A37.26059 37.26059 0 01296.76889 158.20629z"/><path fill="#d7645d" d="M278.17659,219.50648s-11.9775-13.911-24.71472-11.079-18.10425,15.855-18.10425,15.855Z"/><path fill="#38101b" d="M273.47641 168.97509a6.64461 6.64461 0 012.20605-3.42254 6.2238 6.2238 0 014.11816-1.48883 6.58853 6.58853 0 014.05616 1.57769 10.94052 10.94052 0 011.39258 1.52027 11.80237 11.80237 0 01.90625 1.81341 14.71315 14.71315 0 01-1.72852-.91125c-.5708-.25208-1.09131-.55548-1.61914-.77271a8.34109 8.34109 0 00-3.04834-.74243 7.12942 7.12942 0 00-3.03516.64972A24.30156 24.30156 0 00273.47641 168.97509zM222.76059 168.97509a6.64461 6.64461 0 012.20605-3.42254 6.22345 6.22345 0 014.11768-1.48883 6.58876 6.58876 0 014.05664 1.57769 10.97033 10.97033 0 011.39258 1.52027 11.80237 11.80237 0 01.90625 1.81341 14.7603 14.7603 0 01-1.729-.91125c-.5708-.25208-1.09082-.55548-1.61865-.77271a8.34109 8.34109 0 00-3.04834-.74243 7.12942 7.12942 0 00-3.03516.64972A24.30156 24.30156 0 00222.76059 168.97509z"/><path fill="#d2d3d5" d="M261.01937,203.15374a2.19268,2.19268,0,0,0,.36475-.577c.12256-.23859.2417-.4878.356-.74341.22949-.511.44385-1.04352.64551-1.58533.40673-1.084.76953-2.2055,1.103-3.34192.333,1.13727.6377,2.29016.89258,3.47492.12891.59271.24365,1.19311.3374,1.81085.04688.30884.08741.62274.12061.94556a5.77912,5.77912,0,0,1,.03223,1.095l-.10791,1.32269a2.51909,2.51909,0,0,1-5.02149-.40979A2.54514,2.54514,0,0,1,261.01937,203.15374Z"/><path fill="#c68d61" d="M267.29868,194.18388a20.73832,20.73832,0,0,1-12.66655,6.066c.14916.02486.29833.0373.44749.04973h-.895c.14916-.01243.29833-.02487.44749-.04973a20.67494,20.67494,0,0,1-12.50495-5.892Z"/><path fill="#79aecc" d="M252.303,215.3444c-24.79983-4.33065-45.73091-17.70431-48.8966-20.12077a2.78946,2.78946,0,0,0-.953-.47585l-56.77726-15.72762a2.77988,2.77988,0,0,0-3.4211,1.9369l-1.97893,7.144-1.97892,7.144a2.77988,2.77988,0,0,0,1.9369,3.4211l56.77726,15.72763a2.78959,2.78959,0,0,0,1.062.08229c3.95784-.4432,28.78681-1.14107,52.28022,7.90578a1.85693,1.85693,0,0,0,2.46777-1.226l.96687-3.49043A1.85694,1.85694,0,0,0,252.303,215.3444Z"/><rect width="10.008" height="29.254" x="173.454" y="184.051" fill="#d2d3d5" transform="rotate(-74.517 178.458 198.678)"/><circle cx="155.682" cy="192.369" r="5.004" fill="#d2d3d5"/><path fill="#f37041" d="M356.70972,398.89346c.84033,10.17.45019,24.92-.43994,40.22h-61.6001a517.106,517.106,0,0,0-.26953-55.72c-.37012-5.89-.87012-11.47-1.49024-16.63-3.31982-27.64,16.41016-74.39,16.41016-74.39,31.80957,2.36,51.27978,15.96,51.27978,15.96C354.40991,318.01345,354.12964,367.46346,356.70972,398.89346Z"/></svg>